<mxfile host="app.diagrams.net" modified="2024-03-13T21:47:48.887Z" agent="Mozilla/5.0 (Macintosh; Intel Mac OS X 10.15; rv:123.0) Gecko/20100101 Firefox/123.0" etag="GQClmH7Lje7vIOOK4sMu" version="24.0.6" type="google">
  <diagram id="R2lEEEUBdFMjLlhIrx00" name="Page-1">
    <mxGraphModel grid="1" page="1" gridSize="10" guides="1" tooltips="1" connect="1" arrows="1" fold="1" pageScale="1" pageWidth="850" pageHeight="1100" math="0" shadow="0" extFonts="Permanent Marker^https://fonts.googleapis.com/css?family=Permanent+Marker">
      <root>
        <mxCell id="0" />
        <mxCell id="1" parent="0" />
        <mxCell id="7q6tJV_tCPRp6rntr7cv-1" value="citizenship" style="shape=table;startSize=30;container=1;collapsible=1;childLayout=tableLayout;fixedRows=1;rowLines=0;fontStyle=1;align=center;resizeLast=1;html=1;" vertex="1" parent="1">
          <mxGeometry x="700" y="280" width="239" height="120" as="geometry" />
        </mxCell>
        <mxCell id="7q6tJV_tCPRp6rntr7cv-2" value="" style="shape=tableRow;horizontal=0;startSize=0;swimlaneHead=0;swimlaneBody=0;fillColor=none;collapsible=0;dropTarget=0;points=[[0,0.5],[1,0.5]];portConstraint=eastwest;top=0;left=0;right=0;bottom=1;" vertex="1" parent="7q6tJV_tCPRp6rntr7cv-1">
          <mxGeometry y="30" width="239" height="30" as="geometry" />
        </mxCell>
        <mxCell id="7q6tJV_tCPRp6rntr7cv-3" value="PK" style="shape=partialRectangle;connectable=0;fillColor=none;top=0;left=0;bottom=0;right=0;fontStyle=1;overflow=hidden;whiteSpace=wrap;html=1;" vertex="1" parent="7q6tJV_tCPRp6rntr7cv-2">
          <mxGeometry width="30" height="30" as="geometry">
            <mxRectangle width="30" height="30" as="alternateBounds" />
          </mxGeometry>
        </mxCell>
        <mxCell id="7q6tJV_tCPRp6rntr7cv-4" value="citizenship_id SERIAL" style="shape=partialRectangle;connectable=0;fillColor=none;top=0;left=0;bottom=0;right=0;align=left;spacingLeft=6;fontStyle=5;overflow=hidden;whiteSpace=wrap;html=1;" vertex="1" parent="7q6tJV_tCPRp6rntr7cv-2">
          <mxGeometry x="30" width="209" height="30" as="geometry">
            <mxRectangle width="209" height="30" as="alternateBounds" />
          </mxGeometry>
        </mxCell>
        <mxCell id="7q6tJV_tCPRp6rntr7cv-5" value="" style="shape=tableRow;horizontal=0;startSize=0;swimlaneHead=0;swimlaneBody=0;fillColor=none;collapsible=0;dropTarget=0;points=[[0,0.5],[1,0.5]];portConstraint=eastwest;top=0;left=0;right=0;bottom=0;" vertex="1" parent="7q6tJV_tCPRp6rntr7cv-1">
          <mxGeometry y="60" width="239" height="35" as="geometry" />
        </mxCell>
        <mxCell id="7q6tJV_tCPRp6rntr7cv-6" value="" style="shape=partialRectangle;connectable=0;fillColor=none;top=0;left=0;bottom=0;right=0;editable=1;overflow=hidden;whiteSpace=wrap;html=1;" vertex="1" parent="7q6tJV_tCPRp6rntr7cv-5">
          <mxGeometry width="30" height="35" as="geometry">
            <mxRectangle width="30" height="35" as="alternateBounds" />
          </mxGeometry>
        </mxCell>
        <mxCell id="7q6tJV_tCPRp6rntr7cv-7" value="&lt;div&gt;country_name VARCHAR(64)&lt;/div&gt;&lt;div&gt;NOT NULL, UNIQUE&lt;br&gt;&lt;/div&gt;" style="shape=partialRectangle;connectable=0;fillColor=none;top=0;left=0;bottom=0;right=0;align=left;spacingLeft=6;overflow=hidden;whiteSpace=wrap;html=1;" vertex="1" parent="7q6tJV_tCPRp6rntr7cv-5">
          <mxGeometry x="30" width="209" height="35" as="geometry">
            <mxRectangle width="209" height="35" as="alternateBounds" />
          </mxGeometry>
        </mxCell>
        <mxCell id="7q6tJV_tCPRp6rntr7cv-8" value="" style="shape=tableRow;horizontal=0;startSize=0;swimlaneHead=0;swimlaneBody=0;fillColor=none;collapsible=0;dropTarget=0;points=[[0,0.5],[1,0.5]];portConstraint=eastwest;top=0;left=0;right=0;bottom=0;" vertex="1" parent="7q6tJV_tCPRp6rntr7cv-1">
          <mxGeometry y="95" width="239" height="25" as="geometry" />
        </mxCell>
        <mxCell id="7q6tJV_tCPRp6rntr7cv-9" value="" style="shape=partialRectangle;connectable=0;fillColor=none;top=0;left=0;bottom=0;right=0;editable=1;overflow=hidden;whiteSpace=wrap;html=1;" vertex="1" parent="7q6tJV_tCPRp6rntr7cv-8">
          <mxGeometry width="30" height="25" as="geometry">
            <mxRectangle width="30" height="25" as="alternateBounds" />
          </mxGeometry>
        </mxCell>
        <mxCell id="7q6tJV_tCPRp6rntr7cv-10" value="visa_needed BOOL" style="shape=partialRectangle;connectable=0;fillColor=none;top=0;left=0;bottom=0;right=0;align=left;spacingLeft=6;overflow=hidden;whiteSpace=wrap;html=1;" vertex="1" parent="7q6tJV_tCPRp6rntr7cv-8">
          <mxGeometry x="30" width="209" height="25" as="geometry">
            <mxRectangle width="209" height="25" as="alternateBounds" />
          </mxGeometry>
        </mxCell>
        <mxCell id="7q6tJV_tCPRp6rntr7cv-14" value="person" style="shape=table;startSize=30;container=1;collapsible=1;childLayout=tableLayout;fixedRows=1;rowLines=0;fontStyle=1;align=center;resizeLast=1;html=1;" vertex="1" parent="1">
          <mxGeometry x="80" y="250" width="210" height="270" as="geometry" />
        </mxCell>
        <mxCell id="7q6tJV_tCPRp6rntr7cv-15" value="" style="shape=tableRow;horizontal=0;startSize=0;swimlaneHead=0;swimlaneBody=0;fillColor=none;collapsible=0;dropTarget=0;points=[[0,0.5],[1,0.5]];portConstraint=eastwest;top=0;left=0;right=0;bottom=1;" vertex="1" parent="7q6tJV_tCPRp6rntr7cv-14">
          <mxGeometry y="30" width="210" height="30" as="geometry" />
        </mxCell>
        <mxCell id="7q6tJV_tCPRp6rntr7cv-16" value="PK" style="shape=partialRectangle;connectable=0;fillColor=none;top=0;left=0;bottom=0;right=0;fontStyle=1;overflow=hidden;whiteSpace=wrap;html=1;" vertex="1" parent="7q6tJV_tCPRp6rntr7cv-15">
          <mxGeometry width="30" height="30" as="geometry">
            <mxRectangle width="30" height="30" as="alternateBounds" />
          </mxGeometry>
        </mxCell>
        <mxCell id="7q6tJV_tCPRp6rntr7cv-17" value="person_id SERIAL" style="shape=partialRectangle;connectable=0;fillColor=none;top=0;left=0;bottom=0;right=0;align=left;spacingLeft=6;fontStyle=5;overflow=hidden;whiteSpace=wrap;html=1;" vertex="1" parent="7q6tJV_tCPRp6rntr7cv-15">
          <mxGeometry x="30" width="180" height="30" as="geometry">
            <mxRectangle width="180" height="30" as="alternateBounds" />
          </mxGeometry>
        </mxCell>
        <mxCell id="7q6tJV_tCPRp6rntr7cv-18" value="" style="shape=tableRow;horizontal=0;startSize=0;swimlaneHead=0;swimlaneBody=0;fillColor=none;collapsible=0;dropTarget=0;points=[[0,0.5],[1,0.5]];portConstraint=eastwest;top=0;left=0;right=0;bottom=0;" vertex="1" parent="7q6tJV_tCPRp6rntr7cv-14">
          <mxGeometry y="60" width="210" height="30" as="geometry" />
        </mxCell>
        <mxCell id="7q6tJV_tCPRp6rntr7cv-19" value="" style="shape=partialRectangle;connectable=0;fillColor=none;top=0;left=0;bottom=0;right=0;editable=1;overflow=hidden;whiteSpace=wrap;html=1;" vertex="1" parent="7q6tJV_tCPRp6rntr7cv-18">
          <mxGeometry width="30" height="30" as="geometry">
            <mxRectangle width="30" height="30" as="alternateBounds" />
          </mxGeometry>
        </mxCell>
        <mxCell id="7q6tJV_tCPRp6rntr7cv-20" value="&lt;div&gt;first_name VARCHAR(64)&lt;/div&gt;NOT NULL" style="shape=partialRectangle;connectable=0;fillColor=none;top=0;left=0;bottom=0;right=0;align=left;spacingLeft=6;overflow=hidden;whiteSpace=wrap;html=1;" vertex="1" parent="7q6tJV_tCPRp6rntr7cv-18">
          <mxGeometry x="30" width="180" height="30" as="geometry">
            <mxRectangle width="180" height="30" as="alternateBounds" />
          </mxGeometry>
        </mxCell>
        <mxCell id="nXHq23NlSufEnKeixroJ-1" value="" style="shape=tableRow;horizontal=0;startSize=0;swimlaneHead=0;swimlaneBody=0;fillColor=none;collapsible=0;dropTarget=0;points=[[0,0.5],[1,0.5]];portConstraint=eastwest;top=0;left=0;right=0;bottom=0;" vertex="1" parent="7q6tJV_tCPRp6rntr7cv-14">
          <mxGeometry y="90" width="210" height="30" as="geometry" />
        </mxCell>
        <mxCell id="nXHq23NlSufEnKeixroJ-2" value="" style="shape=partialRectangle;connectable=0;fillColor=none;top=0;left=0;bottom=0;right=0;editable=1;overflow=hidden;whiteSpace=wrap;html=1;" vertex="1" parent="nXHq23NlSufEnKeixroJ-1">
          <mxGeometry width="30" height="30" as="geometry">
            <mxRectangle width="30" height="30" as="alternateBounds" />
          </mxGeometry>
        </mxCell>
        <mxCell id="nXHq23NlSufEnKeixroJ-3" value="&lt;div&gt;last_name VARCHAR(64)&lt;/div&gt;&lt;div&gt;NOT NULL&lt;br&gt;&lt;/div&gt;" style="shape=partialRectangle;connectable=0;fillColor=none;top=0;left=0;bottom=0;right=0;align=left;spacingLeft=6;overflow=hidden;whiteSpace=wrap;html=1;" vertex="1" parent="nXHq23NlSufEnKeixroJ-1">
          <mxGeometry x="30" width="180" height="30" as="geometry">
            <mxRectangle width="180" height="30" as="alternateBounds" />
          </mxGeometry>
        </mxCell>
        <mxCell id="7q6tJV_tCPRp6rntr7cv-21" value="" style="shape=tableRow;horizontal=0;startSize=0;swimlaneHead=0;swimlaneBody=0;fillColor=none;collapsible=0;dropTarget=0;points=[[0,0.5],[1,0.5]];portConstraint=eastwest;top=0;left=0;right=0;bottom=0;" vertex="1" parent="7q6tJV_tCPRp6rntr7cv-14">
          <mxGeometry y="120" width="210" height="30" as="geometry" />
        </mxCell>
        <mxCell id="7q6tJV_tCPRp6rntr7cv-22" value="" style="shape=partialRectangle;connectable=0;fillColor=none;top=0;left=0;bottom=0;right=0;editable=1;overflow=hidden;whiteSpace=wrap;html=1;" vertex="1" parent="7q6tJV_tCPRp6rntr7cv-21">
          <mxGeometry width="30" height="30" as="geometry">
            <mxRectangle width="30" height="30" as="alternateBounds" />
          </mxGeometry>
        </mxCell>
        <mxCell id="7q6tJV_tCPRp6rntr7cv-23" value="is_male BOOL" style="shape=partialRectangle;connectable=0;fillColor=none;top=0;left=0;bottom=0;right=0;align=left;spacingLeft=6;overflow=hidden;whiteSpace=wrap;html=1;" vertex="1" parent="7q6tJV_tCPRp6rntr7cv-21">
          <mxGeometry x="30" width="180" height="30" as="geometry">
            <mxRectangle width="180" height="30" as="alternateBounds" />
          </mxGeometry>
        </mxCell>
        <mxCell id="7q6tJV_tCPRp6rntr7cv-24" value="" style="shape=tableRow;horizontal=0;startSize=0;swimlaneHead=0;swimlaneBody=0;fillColor=none;collapsible=0;dropTarget=0;points=[[0,0.5],[1,0.5]];portConstraint=eastwest;top=0;left=0;right=0;bottom=0;" vertex="1" parent="7q6tJV_tCPRp6rntr7cv-14">
          <mxGeometry y="150" width="210" height="30" as="geometry" />
        </mxCell>
        <mxCell id="7q6tJV_tCPRp6rntr7cv-25" value="" style="shape=partialRectangle;connectable=0;fillColor=none;top=0;left=0;bottom=0;right=0;editable=1;overflow=hidden;whiteSpace=wrap;html=1;" vertex="1" parent="7q6tJV_tCPRp6rntr7cv-24">
          <mxGeometry width="30" height="30" as="geometry">
            <mxRectangle width="30" height="30" as="alternateBounds" />
          </mxGeometry>
        </mxCell>
        <mxCell id="7q6tJV_tCPRp6rntr7cv-26" value="&lt;div&gt;height NUMERIC(5, 2)&lt;/div&gt;&amp;gt; 0 , &amp;lt;= 300" style="shape=partialRectangle;connectable=0;fillColor=none;top=0;left=0;bottom=0;right=0;align=left;spacingLeft=6;overflow=hidden;whiteSpace=wrap;html=1;" vertex="1" parent="7q6tJV_tCPRp6rntr7cv-24">
          <mxGeometry x="30" width="180" height="30" as="geometry">
            <mxRectangle width="180" height="30" as="alternateBounds" />
          </mxGeometry>
        </mxCell>
        <mxCell id="7q6tJV_tCPRp6rntr7cv-28" value="" style="shape=tableRow;horizontal=0;startSize=0;swimlaneHead=0;swimlaneBody=0;fillColor=none;collapsible=0;dropTarget=0;points=[[0,0.5],[1,0.5]];portConstraint=eastwest;top=0;left=0;right=0;bottom=0;" vertex="1" parent="7q6tJV_tCPRp6rntr7cv-14">
          <mxGeometry y="180" width="210" height="30" as="geometry" />
        </mxCell>
        <mxCell id="7q6tJV_tCPRp6rntr7cv-29" value="" style="shape=partialRectangle;connectable=0;fillColor=none;top=0;left=0;bottom=0;right=0;editable=1;overflow=hidden;whiteSpace=wrap;html=1;" vertex="1" parent="7q6tJV_tCPRp6rntr7cv-28">
          <mxGeometry width="30" height="30" as="geometry">
            <mxRectangle width="30" height="30" as="alternateBounds" />
          </mxGeometry>
        </mxCell>
        <mxCell id="7q6tJV_tCPRp6rntr7cv-30" value="&lt;div&gt;weight NUMERIC(5, 2)&lt;/div&gt;&amp;gt; 0,&amp;nbsp; &amp;lt;= 300" style="shape=partialRectangle;connectable=0;fillColor=none;top=0;left=0;bottom=0;right=0;align=left;spacingLeft=6;overflow=hidden;whiteSpace=wrap;html=1;" vertex="1" parent="7q6tJV_tCPRp6rntr7cv-28">
          <mxGeometry x="30" width="180" height="30" as="geometry">
            <mxRectangle width="180" height="30" as="alternateBounds" />
          </mxGeometry>
        </mxCell>
        <mxCell id="7q6tJV_tCPRp6rntr7cv-118" value="" style="shape=tableRow;horizontal=0;startSize=0;swimlaneHead=0;swimlaneBody=0;fillColor=none;collapsible=0;dropTarget=0;points=[[0,0.5],[1,0.5]];portConstraint=eastwest;top=0;left=0;right=0;bottom=0;" vertex="1" parent="7q6tJV_tCPRp6rntr7cv-14">
          <mxGeometry y="210" width="210" height="30" as="geometry" />
        </mxCell>
        <mxCell id="7q6tJV_tCPRp6rntr7cv-119" value="FK" style="shape=partialRectangle;connectable=0;fillColor=none;top=0;left=0;bottom=0;right=0;editable=1;overflow=hidden;whiteSpace=wrap;html=1;" vertex="1" parent="7q6tJV_tCPRp6rntr7cv-118">
          <mxGeometry width="30" height="30" as="geometry">
            <mxRectangle width="30" height="30" as="alternateBounds" />
          </mxGeometry>
        </mxCell>
        <mxCell id="7q6tJV_tCPRp6rntr7cv-120" value="home_planet_id INT" style="shape=partialRectangle;connectable=0;fillColor=none;top=0;left=0;bottom=0;right=0;align=left;spacingLeft=6;overflow=hidden;whiteSpace=wrap;html=1;" vertex="1" parent="7q6tJV_tCPRp6rntr7cv-118">
          <mxGeometry x="30" width="180" height="30" as="geometry">
            <mxRectangle width="180" height="30" as="alternateBounds" />
          </mxGeometry>
        </mxCell>
        <mxCell id="7q6tJV_tCPRp6rntr7cv-140" value="" style="shape=tableRow;horizontal=0;startSize=0;swimlaneHead=0;swimlaneBody=0;fillColor=none;collapsible=0;dropTarget=0;points=[[0,0.5],[1,0.5]];portConstraint=eastwest;top=0;left=0;right=0;bottom=0;" vertex="1" parent="7q6tJV_tCPRp6rntr7cv-14">
          <mxGeometry y="240" width="210" height="30" as="geometry" />
        </mxCell>
        <mxCell id="7q6tJV_tCPRp6rntr7cv-141" value="FK" style="shape=partialRectangle;connectable=0;fillColor=none;top=0;left=0;bottom=0;right=0;editable=1;overflow=hidden;whiteSpace=wrap;html=1;" vertex="1" parent="7q6tJV_tCPRp6rntr7cv-140">
          <mxGeometry width="30" height="30" as="geometry">
            <mxRectangle width="30" height="30" as="alternateBounds" />
          </mxGeometry>
        </mxCell>
        <mxCell id="7q6tJV_tCPRp6rntr7cv-142" value="current_planet_id INT" style="shape=partialRectangle;connectable=0;fillColor=none;top=0;left=0;bottom=0;right=0;align=left;spacingLeft=6;overflow=hidden;whiteSpace=wrap;html=1;" vertex="1" parent="7q6tJV_tCPRp6rntr7cv-140">
          <mxGeometry x="30" width="180" height="30" as="geometry">
            <mxRectangle width="180" height="30" as="alternateBounds" />
          </mxGeometry>
        </mxCell>
        <mxCell id="7q6tJV_tCPRp6rntr7cv-57" value="name_rating" style="shape=table;startSize=30;container=1;collapsible=1;childLayout=tableLayout;fixedRows=1;rowLines=0;fontStyle=1;align=center;resizeLast=1;html=1;" vertex="1" parent="1">
          <mxGeometry x="480" y="500" width="180" height="180" as="geometry" />
        </mxCell>
        <mxCell id="7q6tJV_tCPRp6rntr7cv-58" value="" style="shape=tableRow;horizontal=0;startSize=0;swimlaneHead=0;swimlaneBody=0;fillColor=none;collapsible=0;dropTarget=0;points=[[0,0.5],[1,0.5]];portConstraint=eastwest;top=0;left=0;right=0;bottom=1;" vertex="1" parent="7q6tJV_tCPRp6rntr7cv-57">
          <mxGeometry y="30" width="180" height="30" as="geometry" />
        </mxCell>
        <mxCell id="7q6tJV_tCPRp6rntr7cv-59" value="PK" style="shape=partialRectangle;connectable=0;fillColor=none;top=0;left=0;bottom=0;right=0;fontStyle=1;overflow=hidden;whiteSpace=wrap;html=1;" vertex="1" parent="7q6tJV_tCPRp6rntr7cv-58">
          <mxGeometry width="30" height="30" as="geometry">
            <mxRectangle width="30" height="30" as="alternateBounds" />
          </mxGeometry>
        </mxCell>
        <mxCell id="7q6tJV_tCPRp6rntr7cv-60" value="rating_id SERIAL" style="shape=partialRectangle;connectable=0;fillColor=none;top=0;left=0;bottom=0;right=0;align=left;spacingLeft=6;fontStyle=5;overflow=hidden;whiteSpace=wrap;html=1;" vertex="1" parent="7q6tJV_tCPRp6rntr7cv-58">
          <mxGeometry x="30" width="150" height="30" as="geometry">
            <mxRectangle width="150" height="30" as="alternateBounds" />
          </mxGeometry>
        </mxCell>
        <mxCell id="7q6tJV_tCPRp6rntr7cv-61" value="" style="shape=tableRow;horizontal=0;startSize=0;swimlaneHead=0;swimlaneBody=0;fillColor=none;collapsible=0;dropTarget=0;points=[[0,0.5],[1,0.5]];portConstraint=eastwest;top=0;left=0;right=0;bottom=0;" vertex="1" parent="7q6tJV_tCPRp6rntr7cv-57">
          <mxGeometry y="60" width="180" height="30" as="geometry" />
        </mxCell>
        <mxCell id="7q6tJV_tCPRp6rntr7cv-62" value="" style="shape=partialRectangle;connectable=0;fillColor=none;top=0;left=0;bottom=0;right=0;editable=1;overflow=hidden;whiteSpace=wrap;html=1;" vertex="1" parent="7q6tJV_tCPRp6rntr7cv-61">
          <mxGeometry width="30" height="30" as="geometry">
            <mxRectangle width="30" height="30" as="alternateBounds" />
          </mxGeometry>
        </mxCell>
        <mxCell id="7q6tJV_tCPRp6rntr7cv-63" value="&lt;div&gt;rating NUMERIC(1, 0)&lt;/div&gt;&amp;gt;= 0, &amp;lt;= 9, NOT NULL" style="shape=partialRectangle;connectable=0;fillColor=none;top=0;left=0;bottom=0;right=0;align=left;spacingLeft=6;overflow=hidden;whiteSpace=wrap;html=1;" vertex="1" parent="7q6tJV_tCPRp6rntr7cv-61">
          <mxGeometry x="30" width="150" height="30" as="geometry">
            <mxRectangle width="150" height="30" as="alternateBounds" />
          </mxGeometry>
        </mxCell>
        <mxCell id="7q6tJV_tCPRp6rntr7cv-67" value="" style="shape=tableRow;horizontal=0;startSize=0;swimlaneHead=0;swimlaneBody=0;fillColor=none;collapsible=0;dropTarget=0;points=[[0,0.5],[1,0.5]];portConstraint=eastwest;top=0;left=0;right=0;bottom=0;" vertex="1" parent="7q6tJV_tCPRp6rntr7cv-57">
          <mxGeometry y="90" width="180" height="30" as="geometry" />
        </mxCell>
        <mxCell id="7q6tJV_tCPRp6rntr7cv-68" value="" style="shape=partialRectangle;connectable=0;fillColor=none;top=0;left=0;bottom=0;right=0;editable=1;overflow=hidden;whiteSpace=wrap;html=1;" vertex="1" parent="7q6tJV_tCPRp6rntr7cv-67">
          <mxGeometry width="30" height="30" as="geometry">
            <mxRectangle width="30" height="30" as="alternateBounds" />
          </mxGeometry>
        </mxCell>
        <mxCell id="7q6tJV_tCPRp6rntr7cv-69" value="date DATE" style="shape=partialRectangle;connectable=0;fillColor=none;top=0;left=0;bottom=0;right=0;align=left;spacingLeft=6;overflow=hidden;whiteSpace=wrap;html=1;" vertex="1" parent="7q6tJV_tCPRp6rntr7cv-67">
          <mxGeometry x="30" width="150" height="30" as="geometry">
            <mxRectangle width="150" height="30" as="alternateBounds" />
          </mxGeometry>
        </mxCell>
        <mxCell id="7q6tJV_tCPRp6rntr7cv-64" value="" style="shape=tableRow;horizontal=0;startSize=0;swimlaneHead=0;swimlaneBody=0;fillColor=none;collapsible=0;dropTarget=0;points=[[0,0.5],[1,0.5]];portConstraint=eastwest;top=0;left=0;right=0;bottom=0;" vertex="1" parent="7q6tJV_tCPRp6rntr7cv-57">
          <mxGeometry y="120" width="180" height="30" as="geometry" />
        </mxCell>
        <mxCell id="7q6tJV_tCPRp6rntr7cv-65" value="FK" style="shape=partialRectangle;connectable=0;fillColor=none;top=0;left=0;bottom=0;right=0;editable=1;overflow=hidden;whiteSpace=wrap;html=1;" vertex="1" parent="7q6tJV_tCPRp6rntr7cv-64">
          <mxGeometry width="30" height="30" as="geometry">
            <mxRectangle width="30" height="30" as="alternateBounds" />
          </mxGeometry>
        </mxCell>
        <mxCell id="7q6tJV_tCPRp6rntr7cv-66" value="&lt;div&gt;person_id INT&lt;/div&gt;" style="shape=partialRectangle;connectable=0;fillColor=none;top=0;left=0;bottom=0;right=0;align=left;spacingLeft=6;overflow=hidden;whiteSpace=wrap;html=1;" vertex="1" parent="7q6tJV_tCPRp6rntr7cv-64">
          <mxGeometry x="30" width="150" height="30" as="geometry">
            <mxRectangle width="150" height="30" as="alternateBounds" />
          </mxGeometry>
        </mxCell>
        <mxCell id="7q6tJV_tCPRp6rntr7cv-156" value="" style="shape=tableRow;horizontal=0;startSize=0;swimlaneHead=0;swimlaneBody=0;fillColor=none;collapsible=0;dropTarget=0;points=[[0,0.5],[1,0.5]];portConstraint=eastwest;top=0;left=0;right=0;bottom=0;" vertex="1" parent="7q6tJV_tCPRp6rntr7cv-57">
          <mxGeometry y="150" width="180" height="30" as="geometry" />
        </mxCell>
        <mxCell id="7q6tJV_tCPRp6rntr7cv-157" value="FK" style="shape=partialRectangle;connectable=0;fillColor=none;top=0;left=0;bottom=0;right=0;editable=1;overflow=hidden;whiteSpace=wrap;html=1;" vertex="1" parent="7q6tJV_tCPRp6rntr7cv-156">
          <mxGeometry width="30" height="30" as="geometry">
            <mxRectangle width="30" height="30" as="alternateBounds" />
          </mxGeometry>
        </mxCell>
        <mxCell id="7q6tJV_tCPRp6rntr7cv-158" value="&lt;div&gt;name_id INT&lt;/div&gt;NOT NULL" style="shape=partialRectangle;connectable=0;fillColor=none;top=0;left=0;bottom=0;right=0;align=left;spacingLeft=6;overflow=hidden;whiteSpace=wrap;html=1;" vertex="1" parent="7q6tJV_tCPRp6rntr7cv-156">
          <mxGeometry x="30" width="150" height="30" as="geometry">
            <mxRectangle width="150" height="30" as="alternateBounds" />
          </mxGeometry>
        </mxCell>
        <mxCell id="7q6tJV_tCPRp6rntr7cv-70" value="space_object" style="shape=table;startSize=30;container=1;collapsible=1;childLayout=tableLayout;fixedRows=1;rowLines=0;fontStyle=1;align=center;resizeLast=1;html=1;" vertex="1" parent="1">
          <mxGeometry x="80" y="570" width="210" height="210" as="geometry" />
        </mxCell>
        <mxCell id="7q6tJV_tCPRp6rntr7cv-71" value="" style="shape=tableRow;horizontal=0;startSize=0;swimlaneHead=0;swimlaneBody=0;fillColor=none;collapsible=0;dropTarget=0;points=[[0,0.5],[1,0.5]];portConstraint=eastwest;top=0;left=0;right=0;bottom=1;" vertex="1" parent="7q6tJV_tCPRp6rntr7cv-70">
          <mxGeometry y="30" width="210" height="30" as="geometry" />
        </mxCell>
        <mxCell id="7q6tJV_tCPRp6rntr7cv-72" value="PK" style="shape=partialRectangle;connectable=0;fillColor=none;top=0;left=0;bottom=0;right=0;fontStyle=1;overflow=hidden;whiteSpace=wrap;html=1;" vertex="1" parent="7q6tJV_tCPRp6rntr7cv-71">
          <mxGeometry width="30" height="30" as="geometry">
            <mxRectangle width="30" height="30" as="alternateBounds" />
          </mxGeometry>
        </mxCell>
        <mxCell id="7q6tJV_tCPRp6rntr7cv-73" value="object_id SERIAL" style="shape=partialRectangle;connectable=0;fillColor=none;top=0;left=0;bottom=0;right=0;align=left;spacingLeft=6;fontStyle=5;overflow=hidden;whiteSpace=wrap;html=1;" vertex="1" parent="7q6tJV_tCPRp6rntr7cv-71">
          <mxGeometry x="30" width="180" height="30" as="geometry">
            <mxRectangle width="180" height="30" as="alternateBounds" />
          </mxGeometry>
        </mxCell>
        <mxCell id="7q6tJV_tCPRp6rntr7cv-74" value="" style="shape=tableRow;horizontal=0;startSize=0;swimlaneHead=0;swimlaneBody=0;fillColor=none;collapsible=0;dropTarget=0;points=[[0,0.5],[1,0.5]];portConstraint=eastwest;top=0;left=0;right=0;bottom=0;" vertex="1" parent="7q6tJV_tCPRp6rntr7cv-70">
          <mxGeometry y="60" width="210" height="30" as="geometry" />
        </mxCell>
        <mxCell id="7q6tJV_tCPRp6rntr7cv-75" value="" style="shape=partialRectangle;connectable=0;fillColor=none;top=0;left=0;bottom=0;right=0;editable=1;overflow=hidden;whiteSpace=wrap;html=1;" vertex="1" parent="7q6tJV_tCPRp6rntr7cv-74">
          <mxGeometry width="30" height="30" as="geometry">
            <mxRectangle width="30" height="30" as="alternateBounds" />
          </mxGeometry>
        </mxCell>
        <mxCell id="7q6tJV_tCPRp6rntr7cv-76" value="&lt;div&gt;weigh DOUBLE PRECISION&lt;/div&gt;&lt;div&gt;&amp;gt; 0&lt;/div&gt;" style="shape=partialRectangle;connectable=0;fillColor=none;top=0;left=0;bottom=0;right=0;align=left;spacingLeft=6;overflow=hidden;whiteSpace=wrap;html=1;" vertex="1" parent="7q6tJV_tCPRp6rntr7cv-74">
          <mxGeometry x="30" width="180" height="30" as="geometry">
            <mxRectangle width="180" height="30" as="alternateBounds" />
          </mxGeometry>
        </mxCell>
        <mxCell id="7q6tJV_tCPRp6rntr7cv-77" value="" style="shape=tableRow;horizontal=0;startSize=0;swimlaneHead=0;swimlaneBody=0;fillColor=none;collapsible=0;dropTarget=0;points=[[0,0.5],[1,0.5]];portConstraint=eastwest;top=0;left=0;right=0;bottom=0;" vertex="1" parent="7q6tJV_tCPRp6rntr7cv-70">
          <mxGeometry y="90" width="210" height="30" as="geometry" />
        </mxCell>
        <mxCell id="7q6tJV_tCPRp6rntr7cv-78" value="" style="shape=partialRectangle;connectable=0;fillColor=none;top=0;left=0;bottom=0;right=0;editable=1;overflow=hidden;whiteSpace=wrap;html=1;" vertex="1" parent="7q6tJV_tCPRp6rntr7cv-77">
          <mxGeometry width="30" height="30" as="geometry">
            <mxRectangle width="30" height="30" as="alternateBounds" />
          </mxGeometry>
        </mxCell>
        <mxCell id="7q6tJV_tCPRp6rntr7cv-79" value="coords POINT" style="shape=partialRectangle;connectable=0;fillColor=none;top=0;left=0;bottom=0;right=0;align=left;spacingLeft=6;overflow=hidden;whiteSpace=wrap;html=1;" vertex="1" parent="7q6tJV_tCPRp6rntr7cv-77">
          <mxGeometry x="30" width="180" height="30" as="geometry">
            <mxRectangle width="180" height="30" as="alternateBounds" />
          </mxGeometry>
        </mxCell>
        <mxCell id="7q6tJV_tCPRp6rntr7cv-80" value="" style="shape=tableRow;horizontal=0;startSize=0;swimlaneHead=0;swimlaneBody=0;fillColor=none;collapsible=0;dropTarget=0;points=[[0,0.5],[1,0.5]];portConstraint=eastwest;top=0;left=0;right=0;bottom=0;" vertex="1" parent="7q6tJV_tCPRp6rntr7cv-70">
          <mxGeometry y="120" width="210" height="30" as="geometry" />
        </mxCell>
        <mxCell id="7q6tJV_tCPRp6rntr7cv-81" value="" style="shape=partialRectangle;connectable=0;fillColor=none;top=0;left=0;bottom=0;right=0;editable=1;overflow=hidden;whiteSpace=wrap;html=1;" vertex="1" parent="7q6tJV_tCPRp6rntr7cv-80">
          <mxGeometry width="30" height="30" as="geometry">
            <mxRectangle width="30" height="30" as="alternateBounds" />
          </mxGeometry>
        </mxCell>
        <mxCell id="7q6tJV_tCPRp6rntr7cv-82" value="has_magnetic_field BOOL" style="shape=partialRectangle;connectable=0;fillColor=none;top=0;left=0;bottom=0;right=0;align=left;spacingLeft=6;overflow=hidden;whiteSpace=wrap;html=1;" vertex="1" parent="7q6tJV_tCPRp6rntr7cv-80">
          <mxGeometry x="30" width="180" height="30" as="geometry">
            <mxRectangle width="180" height="30" as="alternateBounds" />
          </mxGeometry>
        </mxCell>
        <mxCell id="7q6tJV_tCPRp6rntr7cv-83" value="" style="shape=tableRow;horizontal=0;startSize=0;swimlaneHead=0;swimlaneBody=0;fillColor=none;collapsible=0;dropTarget=0;points=[[0,0.5],[1,0.5]];portConstraint=eastwest;top=0;left=0;right=0;bottom=0;" vertex="1" parent="7q6tJV_tCPRp6rntr7cv-70">
          <mxGeometry y="150" width="210" height="30" as="geometry" />
        </mxCell>
        <mxCell id="7q6tJV_tCPRp6rntr7cv-84" value="" style="shape=partialRectangle;connectable=0;fillColor=none;top=0;left=0;bottom=0;right=0;editable=1;overflow=hidden;whiteSpace=wrap;html=1;" vertex="1" parent="7q6tJV_tCPRp6rntr7cv-83">
          <mxGeometry width="30" height="30" as="geometry">
            <mxRectangle width="30" height="30" as="alternateBounds" />
          </mxGeometry>
        </mxCell>
        <mxCell id="7q6tJV_tCPRp6rntr7cv-85" value="has_atmosphere BOOL" style="shape=partialRectangle;connectable=0;fillColor=none;top=0;left=0;bottom=0;right=0;align=left;spacingLeft=6;overflow=hidden;whiteSpace=wrap;html=1;" vertex="1" parent="7q6tJV_tCPRp6rntr7cv-83">
          <mxGeometry x="30" width="180" height="30" as="geometry">
            <mxRectangle width="180" height="30" as="alternateBounds" />
          </mxGeometry>
        </mxCell>
        <mxCell id="7q6tJV_tCPRp6rntr7cv-86" value="" style="shape=tableRow;horizontal=0;startSize=0;swimlaneHead=0;swimlaneBody=0;fillColor=none;collapsible=0;dropTarget=0;points=[[0,0.5],[1,0.5]];portConstraint=eastwest;top=0;left=0;right=0;bottom=0;" vertex="1" parent="7q6tJV_tCPRp6rntr7cv-70">
          <mxGeometry y="180" width="210" height="30" as="geometry" />
        </mxCell>
        <mxCell id="7q6tJV_tCPRp6rntr7cv-87" value="" style="shape=partialRectangle;connectable=0;fillColor=none;top=0;left=0;bottom=0;right=0;editable=1;overflow=hidden;whiteSpace=wrap;html=1;" vertex="1" parent="7q6tJV_tCPRp6rntr7cv-86">
          <mxGeometry width="30" height="30" as="geometry">
            <mxRectangle width="30" height="30" as="alternateBounds" />
          </mxGeometry>
        </mxCell>
        <mxCell id="7q6tJV_tCPRp6rntr7cv-88" value="&lt;div&gt;diameter DOUBLE PRECISION&lt;/div&gt;&lt;div&gt;&amp;gt; 0&lt;br&gt;&lt;/div&gt;" style="shape=partialRectangle;connectable=0;fillColor=none;top=0;left=0;bottom=0;right=0;align=left;spacingLeft=6;overflow=hidden;whiteSpace=wrap;html=1;" vertex="1" parent="7q6tJV_tCPRp6rntr7cv-86">
          <mxGeometry x="30" width="180" height="30" as="geometry">
            <mxRectangle width="180" height="30" as="alternateBounds" />
          </mxGeometry>
        </mxCell>
        <mxCell id="7q6tJV_tCPRp6rntr7cv-89" value="space_object_name" style="shape=table;startSize=30;container=1;collapsible=1;childLayout=tableLayout;fixedRows=1;rowLines=0;fontStyle=1;align=center;resizeLast=1;html=1;" vertex="1" parent="1">
          <mxGeometry x="80" y="830" width="210" height="180" as="geometry" />
        </mxCell>
        <mxCell id="7q6tJV_tCPRp6rntr7cv-90" value="" style="shape=tableRow;horizontal=0;startSize=0;swimlaneHead=0;swimlaneBody=0;fillColor=none;collapsible=0;dropTarget=0;points=[[0,0.5],[1,0.5]];portConstraint=eastwest;top=0;left=0;right=0;bottom=1;" vertex="1" parent="7q6tJV_tCPRp6rntr7cv-89">
          <mxGeometry y="30" width="210" height="30" as="geometry" />
        </mxCell>
        <mxCell id="7q6tJV_tCPRp6rntr7cv-91" value="PK" style="shape=partialRectangle;connectable=0;fillColor=none;top=0;left=0;bottom=0;right=0;fontStyle=1;overflow=hidden;whiteSpace=wrap;html=1;" vertex="1" parent="7q6tJV_tCPRp6rntr7cv-90">
          <mxGeometry width="30" height="30" as="geometry">
            <mxRectangle width="30" height="30" as="alternateBounds" />
          </mxGeometry>
        </mxCell>
        <mxCell id="7q6tJV_tCPRp6rntr7cv-92" value="name_id SERIAL" style="shape=partialRectangle;connectable=0;fillColor=none;top=0;left=0;bottom=0;right=0;align=left;spacingLeft=6;fontStyle=5;overflow=hidden;whiteSpace=wrap;html=1;" vertex="1" parent="7q6tJV_tCPRp6rntr7cv-90">
          <mxGeometry x="30" width="180" height="30" as="geometry">
            <mxRectangle width="180" height="30" as="alternateBounds" />
          </mxGeometry>
        </mxCell>
        <mxCell id="7q6tJV_tCPRp6rntr7cv-93" value="" style="shape=tableRow;horizontal=0;startSize=0;swimlaneHead=0;swimlaneBody=0;fillColor=none;collapsible=0;dropTarget=0;points=[[0,0.5],[1,0.5]];portConstraint=eastwest;top=0;left=0;right=0;bottom=0;" vertex="1" parent="7q6tJV_tCPRp6rntr7cv-89">
          <mxGeometry y="60" width="210" height="30" as="geometry" />
        </mxCell>
        <mxCell id="7q6tJV_tCPRp6rntr7cv-94" value="" style="shape=partialRectangle;connectable=0;fillColor=none;top=0;left=0;bottom=0;right=0;editable=1;overflow=hidden;whiteSpace=wrap;html=1;" vertex="1" parent="7q6tJV_tCPRp6rntr7cv-93">
          <mxGeometry width="30" height="30" as="geometry">
            <mxRectangle width="30" height="30" as="alternateBounds" />
          </mxGeometry>
        </mxCell>
        <mxCell id="7q6tJV_tCPRp6rntr7cv-95" value="&lt;div&gt;name VARCHAR(128)&lt;/div&gt;NOT NULL" style="shape=partialRectangle;connectable=0;fillColor=none;top=0;left=0;bottom=0;right=0;align=left;spacingLeft=6;overflow=hidden;whiteSpace=wrap;html=1;" vertex="1" parent="7q6tJV_tCPRp6rntr7cv-93">
          <mxGeometry x="30" width="180" height="30" as="geometry">
            <mxRectangle width="180" height="30" as="alternateBounds" />
          </mxGeometry>
        </mxCell>
        <mxCell id="7q6tJV_tCPRp6rntr7cv-96" value="" style="shape=tableRow;horizontal=0;startSize=0;swimlaneHead=0;swimlaneBody=0;fillColor=none;collapsible=0;dropTarget=0;points=[[0,0.5],[1,0.5]];portConstraint=eastwest;top=0;left=0;right=0;bottom=0;" vertex="1" parent="7q6tJV_tCPRp6rntr7cv-89">
          <mxGeometry y="90" width="210" height="30" as="geometry" />
        </mxCell>
        <mxCell id="7q6tJV_tCPRp6rntr7cv-97" value="" style="shape=partialRectangle;connectable=0;fillColor=none;top=0;left=0;bottom=0;right=0;editable=1;overflow=hidden;whiteSpace=wrap;html=1;" vertex="1" parent="7q6tJV_tCPRp6rntr7cv-96">
          <mxGeometry width="30" height="30" as="geometry">
            <mxRectangle width="30" height="30" as="alternateBounds" />
          </mxGeometry>
        </mxCell>
        <mxCell id="7q6tJV_tCPRp6rntr7cv-98" value="is_offical BOOL" style="shape=partialRectangle;connectable=0;fillColor=none;top=0;left=0;bottom=0;right=0;align=left;spacingLeft=6;overflow=hidden;whiteSpace=wrap;html=1;" vertex="1" parent="7q6tJV_tCPRp6rntr7cv-96">
          <mxGeometry x="30" width="180" height="30" as="geometry">
            <mxRectangle width="180" height="30" as="alternateBounds" />
          </mxGeometry>
        </mxCell>
        <mxCell id="7q6tJV_tCPRp6rntr7cv-99" value="" style="shape=tableRow;horizontal=0;startSize=0;swimlaneHead=0;swimlaneBody=0;fillColor=none;collapsible=0;dropTarget=0;points=[[0,0.5],[1,0.5]];portConstraint=eastwest;top=0;left=0;right=0;bottom=0;" vertex="1" parent="7q6tJV_tCPRp6rntr7cv-89">
          <mxGeometry y="120" width="210" height="30" as="geometry" />
        </mxCell>
        <mxCell id="7q6tJV_tCPRp6rntr7cv-100" value="FK" style="shape=partialRectangle;connectable=0;fillColor=none;top=0;left=0;bottom=0;right=0;editable=1;overflow=hidden;whiteSpace=wrap;html=1;" vertex="1" parent="7q6tJV_tCPRp6rntr7cv-99">
          <mxGeometry width="30" height="30" as="geometry">
            <mxRectangle width="30" height="30" as="alternateBounds" />
          </mxGeometry>
        </mxCell>
        <mxCell id="7q6tJV_tCPRp6rntr7cv-101" value="&lt;div&gt;creator_id INT&lt;/div&gt;" style="shape=partialRectangle;connectable=0;fillColor=none;top=0;left=0;bottom=0;right=0;align=left;spacingLeft=6;overflow=hidden;whiteSpace=wrap;html=1;" vertex="1" parent="7q6tJV_tCPRp6rntr7cv-99">
          <mxGeometry x="30" width="180" height="30" as="geometry">
            <mxRectangle width="180" height="30" as="alternateBounds" />
          </mxGeometry>
        </mxCell>
        <mxCell id="7q6tJV_tCPRp6rntr7cv-165" value="" style="shape=tableRow;horizontal=0;startSize=0;swimlaneHead=0;swimlaneBody=0;fillColor=none;collapsible=0;dropTarget=0;points=[[0,0.5],[1,0.5]];portConstraint=eastwest;top=0;left=0;right=0;bottom=0;" vertex="1" parent="7q6tJV_tCPRp6rntr7cv-89">
          <mxGeometry y="150" width="210" height="30" as="geometry" />
        </mxCell>
        <mxCell id="7q6tJV_tCPRp6rntr7cv-166" value="FK" style="shape=partialRectangle;connectable=0;fillColor=none;top=0;left=0;bottom=0;right=0;editable=1;overflow=hidden;whiteSpace=wrap;html=1;" vertex="1" parent="7q6tJV_tCPRp6rntr7cv-165">
          <mxGeometry width="30" height="30" as="geometry">
            <mxRectangle width="30" height="30" as="alternateBounds" />
          </mxGeometry>
        </mxCell>
        <mxCell id="7q6tJV_tCPRp6rntr7cv-167" value="&lt;div&gt;object_id INT&lt;/div&gt;NOT NULL" style="shape=partialRectangle;connectable=0;fillColor=none;top=0;left=0;bottom=0;right=0;align=left;spacingLeft=6;overflow=hidden;whiteSpace=wrap;html=1;" vertex="1" parent="7q6tJV_tCPRp6rntr7cv-165">
          <mxGeometry x="30" width="180" height="30" as="geometry">
            <mxRectangle width="180" height="30" as="alternateBounds" />
          </mxGeometry>
        </mxCell>
        <mxCell id="7q6tJV_tCPRp6rntr7cv-31" value="emotion" style="shape=table;startSize=30;container=1;collapsible=1;childLayout=tableLayout;fixedRows=1;rowLines=0;fontStyle=1;align=center;resizeLast=1;html=1;" vertex="1" parent="1">
          <mxGeometry x="80" y="20" width="210" height="180" as="geometry" />
        </mxCell>
        <mxCell id="7q6tJV_tCPRp6rntr7cv-32" value="" style="shape=tableRow;horizontal=0;startSize=0;swimlaneHead=0;swimlaneBody=0;fillColor=none;collapsible=0;dropTarget=0;points=[[0,0.5],[1,0.5]];portConstraint=eastwest;top=0;left=0;right=0;bottom=1;" vertex="1" parent="7q6tJV_tCPRp6rntr7cv-31">
          <mxGeometry y="30" width="210" height="30" as="geometry" />
        </mxCell>
        <mxCell id="7q6tJV_tCPRp6rntr7cv-33" value="PK" style="shape=partialRectangle;connectable=0;fillColor=none;top=0;left=0;bottom=0;right=0;fontStyle=1;overflow=hidden;whiteSpace=wrap;html=1;" vertex="1" parent="7q6tJV_tCPRp6rntr7cv-32">
          <mxGeometry width="30" height="30" as="geometry">
            <mxRectangle width="30" height="30" as="alternateBounds" />
          </mxGeometry>
        </mxCell>
        <mxCell id="7q6tJV_tCPRp6rntr7cv-34" value="emotion_id" style="shape=partialRectangle;connectable=0;fillColor=none;top=0;left=0;bottom=0;right=0;align=left;spacingLeft=6;fontStyle=5;overflow=hidden;whiteSpace=wrap;html=1;" vertex="1" parent="7q6tJV_tCPRp6rntr7cv-32">
          <mxGeometry x="30" width="180" height="30" as="geometry">
            <mxRectangle width="180" height="30" as="alternateBounds" />
          </mxGeometry>
        </mxCell>
        <mxCell id="7q6tJV_tCPRp6rntr7cv-35" value="" style="shape=tableRow;horizontal=0;startSize=0;swimlaneHead=0;swimlaneBody=0;fillColor=none;collapsible=0;dropTarget=0;points=[[0,0.5],[1,0.5]];portConstraint=eastwest;top=0;left=0;right=0;bottom=0;" vertex="1" parent="7q6tJV_tCPRp6rntr7cv-31">
          <mxGeometry y="60" width="210" height="30" as="geometry" />
        </mxCell>
        <mxCell id="7q6tJV_tCPRp6rntr7cv-36" value="" style="shape=partialRectangle;connectable=0;fillColor=none;top=0;left=0;bottom=0;right=0;editable=1;overflow=hidden;whiteSpace=wrap;html=1;" vertex="1" parent="7q6tJV_tCPRp6rntr7cv-35">
          <mxGeometry width="30" height="30" as="geometry">
            <mxRectangle width="30" height="30" as="alternateBounds" />
          </mxGeometry>
        </mxCell>
        <mxCell id="7q6tJV_tCPRp6rntr7cv-37" value="&lt;div&gt;name VARCHAR(64)&lt;/div&gt;NOT NULL" style="shape=partialRectangle;connectable=0;fillColor=none;top=0;left=0;bottom=0;right=0;align=left;spacingLeft=6;overflow=hidden;whiteSpace=wrap;html=1;" vertex="1" parent="7q6tJV_tCPRp6rntr7cv-35">
          <mxGeometry x="30" width="180" height="30" as="geometry">
            <mxRectangle width="180" height="30" as="alternateBounds" />
          </mxGeometry>
        </mxCell>
        <mxCell id="7q6tJV_tCPRp6rntr7cv-38" value="" style="shape=tableRow;horizontal=0;startSize=0;swimlaneHead=0;swimlaneBody=0;fillColor=none;collapsible=0;dropTarget=0;points=[[0,0.5],[1,0.5]];portConstraint=eastwest;top=0;left=0;right=0;bottom=0;" vertex="1" parent="7q6tJV_tCPRp6rntr7cv-31">
          <mxGeometry y="90" width="210" height="30" as="geometry" />
        </mxCell>
        <mxCell id="7q6tJV_tCPRp6rntr7cv-39" value="" style="shape=partialRectangle;connectable=0;fillColor=none;top=0;left=0;bottom=0;right=0;editable=1;overflow=hidden;whiteSpace=wrap;html=1;" vertex="1" parent="7q6tJV_tCPRp6rntr7cv-38">
          <mxGeometry width="30" height="30" as="geometry">
            <mxRectangle width="30" height="30" as="alternateBounds" />
          </mxGeometry>
        </mxCell>
        <mxCell id="7q6tJV_tCPRp6rntr7cv-40" value="duration INTERVAL" style="shape=partialRectangle;connectable=0;fillColor=none;top=0;left=0;bottom=0;right=0;align=left;spacingLeft=6;overflow=hidden;whiteSpace=wrap;html=1;" vertex="1" parent="7q6tJV_tCPRp6rntr7cv-38">
          <mxGeometry x="30" width="180" height="30" as="geometry">
            <mxRectangle width="180" height="30" as="alternateBounds" />
          </mxGeometry>
        </mxCell>
        <mxCell id="7q6tJV_tCPRp6rntr7cv-41" value="" style="shape=tableRow;horizontal=0;startSize=0;swimlaneHead=0;swimlaneBody=0;fillColor=none;collapsible=0;dropTarget=0;points=[[0,0.5],[1,0.5]];portConstraint=eastwest;top=0;left=0;right=0;bottom=0;" vertex="1" parent="7q6tJV_tCPRp6rntr7cv-31">
          <mxGeometry y="120" width="210" height="30" as="geometry" />
        </mxCell>
        <mxCell id="7q6tJV_tCPRp6rntr7cv-42" value="" style="shape=partialRectangle;connectable=0;fillColor=none;top=0;left=0;bottom=0;right=0;editable=1;overflow=hidden;whiteSpace=wrap;html=1;" vertex="1" parent="7q6tJV_tCPRp6rntr7cv-41">
          <mxGeometry width="30" height="30" as="geometry">
            <mxRectangle width="30" height="30" as="alternateBounds" />
          </mxGeometry>
        </mxCell>
        <mxCell id="7q6tJV_tCPRp6rntr7cv-43" value="&lt;div&gt;power NUMERIC(1, 0)&lt;/div&gt;&amp;gt;= 0, &amp;lt;= 5" style="shape=partialRectangle;connectable=0;fillColor=none;top=0;left=0;bottom=0;right=0;align=left;spacingLeft=6;overflow=hidden;whiteSpace=wrap;html=1;" vertex="1" parent="7q6tJV_tCPRp6rntr7cv-41">
          <mxGeometry x="30" width="180" height="30" as="geometry">
            <mxRectangle width="180" height="30" as="alternateBounds" />
          </mxGeometry>
        </mxCell>
        <mxCell id="7q6tJV_tCPRp6rntr7cv-102" value="" style="shape=tableRow;horizontal=0;startSize=0;swimlaneHead=0;swimlaneBody=0;fillColor=none;collapsible=0;dropTarget=0;points=[[0,0.5],[1,0.5]];portConstraint=eastwest;top=0;left=0;right=0;bottom=0;" vertex="1" parent="7q6tJV_tCPRp6rntr7cv-31">
          <mxGeometry y="150" width="210" height="30" as="geometry" />
        </mxCell>
        <mxCell id="7q6tJV_tCPRp6rntr7cv-103" value="FK" style="shape=partialRectangle;connectable=0;fillColor=none;top=0;left=0;bottom=0;right=0;editable=1;overflow=hidden;whiteSpace=wrap;html=1;" vertex="1" parent="7q6tJV_tCPRp6rntr7cv-102">
          <mxGeometry width="30" height="30" as="geometry">
            <mxRectangle width="30" height="30" as="alternateBounds" />
          </mxGeometry>
        </mxCell>
        <mxCell id="7q6tJV_tCPRp6rntr7cv-104" value="&lt;div&gt;person_id INT&lt;/div&gt;&lt;div&gt;NOT NULL&lt;br&gt;&lt;/div&gt;" style="shape=partialRectangle;connectable=0;fillColor=none;top=0;left=0;bottom=0;right=0;align=left;spacingLeft=6;overflow=hidden;whiteSpace=wrap;html=1;" vertex="1" parent="7q6tJV_tCPRp6rntr7cv-102">
          <mxGeometry x="30" width="180" height="30" as="geometry">
            <mxRectangle width="180" height="30" as="alternateBounds" />
          </mxGeometry>
        </mxCell>
        <mxCell id="7q6tJV_tCPRp6rntr7cv-105" value="person_citizenship_relation" style="shape=table;startSize=30;container=1;collapsible=1;childLayout=tableLayout;fixedRows=1;rowLines=0;fontStyle=1;align=center;resizeLast=1;html=1;" vertex="1" parent="1">
          <mxGeometry x="390" y="250" width="180" height="90" as="geometry" />
        </mxCell>
        <mxCell id="7q6tJV_tCPRp6rntr7cv-109" value="" style="shape=tableRow;horizontal=0;startSize=0;swimlaneHead=0;swimlaneBody=0;fillColor=none;collapsible=0;dropTarget=0;points=[[0,0.5],[1,0.5]];portConstraint=eastwest;top=0;left=0;right=0;bottom=0;" vertex="1" parent="7q6tJV_tCPRp6rntr7cv-105">
          <mxGeometry y="30" width="180" height="30" as="geometry" />
        </mxCell>
        <mxCell id="7q6tJV_tCPRp6rntr7cv-110" value="PK" style="shape=partialRectangle;connectable=0;fillColor=none;top=0;left=0;bottom=0;right=0;editable=1;overflow=hidden;whiteSpace=wrap;html=1;" vertex="1" parent="7q6tJV_tCPRp6rntr7cv-109">
          <mxGeometry width="30" height="30" as="geometry">
            <mxRectangle width="30" height="30" as="alternateBounds" />
          </mxGeometry>
        </mxCell>
        <mxCell id="7q6tJV_tCPRp6rntr7cv-111" value="person_id INT" style="shape=partialRectangle;connectable=0;fillColor=none;top=0;left=0;bottom=0;right=0;align=left;spacingLeft=6;overflow=hidden;whiteSpace=wrap;html=1;" vertex="1" parent="7q6tJV_tCPRp6rntr7cv-109">
          <mxGeometry x="30" width="150" height="30" as="geometry">
            <mxRectangle width="150" height="30" as="alternateBounds" />
          </mxGeometry>
        </mxCell>
        <mxCell id="7q6tJV_tCPRp6rntr7cv-112" value="" style="shape=tableRow;horizontal=0;startSize=0;swimlaneHead=0;swimlaneBody=0;fillColor=none;collapsible=0;dropTarget=0;points=[[0,0.5],[1,0.5]];portConstraint=eastwest;top=0;left=0;right=0;bottom=0;" vertex="1" parent="7q6tJV_tCPRp6rntr7cv-105">
          <mxGeometry y="60" width="180" height="30" as="geometry" />
        </mxCell>
        <mxCell id="7q6tJV_tCPRp6rntr7cv-113" value="PK" style="shape=partialRectangle;connectable=0;fillColor=none;top=0;left=0;bottom=0;right=0;editable=1;overflow=hidden;whiteSpace=wrap;html=1;" vertex="1" parent="7q6tJV_tCPRp6rntr7cv-112">
          <mxGeometry width="30" height="30" as="geometry">
            <mxRectangle width="30" height="30" as="alternateBounds" />
          </mxGeometry>
        </mxCell>
        <mxCell id="7q6tJV_tCPRp6rntr7cv-114" value="citizenship_id INT" style="shape=partialRectangle;connectable=0;fillColor=none;top=0;left=0;bottom=0;right=0;align=left;spacingLeft=6;overflow=hidden;whiteSpace=wrap;html=1;" vertex="1" parent="7q6tJV_tCPRp6rntr7cv-112">
          <mxGeometry x="30" width="150" height="30" as="geometry">
            <mxRectangle width="150" height="30" as="alternateBounds" />
          </mxGeometry>
        </mxCell>
        <mxCell id="RZ0JlPiGEFF5IA5Vpp9K-1" value="" style="edgeStyle=elbowEdgeStyle;fontSize=12;html=1;endArrow=ERzeroToMany;startArrow=ERmandOne;rounded=0;exitX=1;exitY=0.5;exitDx=0;exitDy=0;entryX=0;entryY=0.5;entryDx=0;entryDy=0;" edge="1" parent="1" source="7q6tJV_tCPRp6rntr7cv-15" target="7q6tJV_tCPRp6rntr7cv-109">
          <mxGeometry width="100" height="100" relative="1" as="geometry">
            <mxPoint x="350" y="600" as="sourcePoint" />
            <mxPoint x="450" y="500" as="targetPoint" />
          </mxGeometry>
        </mxCell>
        <mxCell id="RZ0JlPiGEFF5IA5Vpp9K-2" value="" style="edgeStyle=elbowEdgeStyle;fontSize=12;html=1;endArrow=ERzeroToMany;startArrow=ERmandOne;rounded=0;entryX=1;entryY=0.5;entryDx=0;entryDy=0;exitX=0;exitY=0.5;exitDx=0;exitDy=0;" edge="1" parent="1" source="7q6tJV_tCPRp6rntr7cv-2" target="7q6tJV_tCPRp6rntr7cv-112">
          <mxGeometry width="100" height="100" relative="1" as="geometry">
            <mxPoint x="470" y="580" as="sourcePoint" />
            <mxPoint x="570" y="480" as="targetPoint" />
          </mxGeometry>
        </mxCell>
        <mxCell id="RZ0JlPiGEFF5IA5Vpp9K-3" value="" style="edgeStyle=elbowEdgeStyle;fontSize=12;html=1;endArrow=ERzeroToMany;startArrow=ERmandOne;rounded=0;entryX=1;entryY=0.5;entryDx=0;entryDy=0;exitX=1.003;exitY=0.058;exitDx=0;exitDy=0;exitPerimeter=0;" edge="1" parent="1" source="7q6tJV_tCPRp6rntr7cv-14" target="7q6tJV_tCPRp6rntr7cv-102">
          <mxGeometry width="100" height="100" relative="1" as="geometry">
            <mxPoint x="250" y="273" as="sourcePoint" />
            <mxPoint x="460" y="180" as="targetPoint" />
            <Array as="points">
              <mxPoint x="310" y="230" />
            </Array>
          </mxGeometry>
        </mxCell>
        <mxCell id="RZ0JlPiGEFF5IA5Vpp9K-4" value="" style="edgeStyle=elbowEdgeStyle;fontSize=12;html=1;endArrow=ERzeroToMany;startArrow=ERmandOne;rounded=0;exitX=1;exitY=0.5;exitDx=0;exitDy=0;entryX=0;entryY=0.5;entryDx=0;entryDy=0;" edge="1" parent="1" source="7q6tJV_tCPRp6rntr7cv-28" target="7q6tJV_tCPRp6rntr7cv-64">
          <mxGeometry width="100" height="100" relative="1" as="geometry">
            <mxPoint x="360" y="770" as="sourcePoint" />
            <mxPoint x="460" y="670" as="targetPoint" />
          </mxGeometry>
        </mxCell>
        <mxCell id="RZ0JlPiGEFF5IA5Vpp9K-5" value="" style="edgeStyle=elbowEdgeStyle;fontSize=12;html=1;endArrow=ERzeroToMany;startArrow=ERmandOne;rounded=0;entryX=0;entryY=0.5;entryDx=0;entryDy=0;exitX=1;exitY=0.5;exitDx=0;exitDy=0;" edge="1" parent="1" source="7q6tJV_tCPRp6rntr7cv-90" target="7q6tJV_tCPRp6rntr7cv-156">
          <mxGeometry width="100" height="100" relative="1" as="geometry">
            <mxPoint x="390" y="1030" as="sourcePoint" />
            <mxPoint x="490" y="930" as="targetPoint" />
          </mxGeometry>
        </mxCell>
        <mxCell id="RZ0JlPiGEFF5IA5Vpp9K-6" value="" style="edgeStyle=entityRelationEdgeStyle;fontSize=12;html=1;endArrow=ERzeroToMany;startArrow=ERmandOne;rounded=0;entryX=1;entryY=0.5;entryDx=0;entryDy=0;exitX=1;exitY=0.5;exitDx=0;exitDy=0;" edge="1" parent="1" source="7q6tJV_tCPRp6rntr7cv-71" target="7q6tJV_tCPRp6rntr7cv-165">
          <mxGeometry width="100" height="100" relative="1" as="geometry">
            <mxPoint x="490" y="990" as="sourcePoint" />
            <mxPoint x="590" y="890" as="targetPoint" />
          </mxGeometry>
        </mxCell>
        <mxCell id="RZ0JlPiGEFF5IA5Vpp9K-7" value="" style="edgeStyle=elbowEdgeStyle;fontSize=12;html=1;endArrow=ERzeroToMany;startArrow=ERmandOne;rounded=0;entryX=0;entryY=0.5;entryDx=0;entryDy=0;exitX=0;exitY=0.5;exitDx=0;exitDy=0;" edge="1" parent="1" source="7q6tJV_tCPRp6rntr7cv-15" target="7q6tJV_tCPRp6rntr7cv-99">
          <mxGeometry width="100" height="100" relative="1" as="geometry">
            <mxPoint x="160" y="690" as="sourcePoint" />
            <mxPoint x="260" y="590" as="targetPoint" />
            <Array as="points">
              <mxPoint x="30" y="630" />
            </Array>
          </mxGeometry>
        </mxCell>
        <mxCell id="RZ0JlPiGEFF5IA5Vpp9K-8" value="" style="edgeStyle=elbowEdgeStyle;fontSize=12;html=1;endArrow=ERzeroToMany;startArrow=ERmandOne;rounded=0;entryX=1;entryY=0.5;entryDx=0;entryDy=0;exitX=1;exitY=0;exitDx=0;exitDy=0;" edge="1" parent="1" source="7q6tJV_tCPRp6rntr7cv-70" target="7q6tJV_tCPRp6rntr7cv-118">
          <mxGeometry width="100" height="100" relative="1" as="geometry">
            <mxPoint x="280" y="587" as="sourcePoint" />
            <mxPoint x="525" y="760" as="targetPoint" />
            <Array as="points">
              <mxPoint x="310" y="530" />
            </Array>
          </mxGeometry>
        </mxCell>
        <mxCell id="RZ0JlPiGEFF5IA5Vpp9K-9" value="" style="edgeStyle=elbowEdgeStyle;fontSize=12;html=1;endArrow=ERzeroToMany;startArrow=ERmandOne;rounded=0;entryX=0;entryY=0.5;entryDx=0;entryDy=0;exitX=0;exitY=0.5;exitDx=0;exitDy=0;" edge="1" parent="1" source="7q6tJV_tCPRp6rntr7cv-71" target="7q6tJV_tCPRp6rntr7cv-140">
          <mxGeometry width="100" height="100" relative="1" as="geometry">
            <mxPoint x="460" y="900" as="sourcePoint" />
            <mxPoint x="560" y="800" as="targetPoint" />
            <Array as="points">
              <mxPoint x="50" y="560" />
            </Array>
          </mxGeometry>
        </mxCell>
      </root>
    </mxGraphModel>
  </diagram>
</mxfile>
